<?xml version="1.0" standalone="no"?><!DOCTYPE svg PUBLIC "-//W3C//DTD SVG 1.1//EN" "http://www.w3.org/Graphics/SVG/1.1/DTD/svg11.dtd"><svg t="1678090131653" class="icon" viewBox="0 0 1024 1024" version="1.1" xmlns="http://www.w3.org/2000/svg" p-id="18565" xmlns:xlink="http://www.w3.org/1999/xlink" width="200" height="200"><path d="M395.968 323.413333c68.48-6.314667 134.4 15.232 183.829333 59.605334 48.170667 44.373333 78.592 106.474667 78.592 174.933333 0 64.64-25.344 126.784-70.997333 169.877333l-106.474667 101.418667C465.706667 845.717333 445.418667 853.333333 422.592 853.333333s-43.093333-7.616-58.304-24.106666l-103.957333-103.936a236.650667 236.650667 0 0 1-70.997334-191.424c5.077333-53.248 27.904-103.957333 65.92-141.973334 36.778667-38.037333 87.466667-63.381333 140.714667-68.48z m27.904 140.736a76.821333 76.821333 0 0 0-77.333333 77.333334 76.821333 76.821333 0 0 0 77.333333 77.333333c41.813333 0 77.312-34.24 77.312-77.333333a76.821333 76.821333 0 0 0-77.312-77.333334zM538.069333 170.666667c180.906667 7.530667 304.746667 142.101333 297.216 323.008l-51.690666-2.133334c6.464-155.072-92.608-262.741333-247.68-269.184z m-4.288 103.36c103.36 4.309333 202.453333 111.978667 198.144 215.36l-51.690666-2.154667c3.2-77.525333-71.082667-158.293333-148.608-161.493333z" fill="#4B4D5C" p-id="18566"></path></svg>