<?xml version="1.0" standalone="no"?><!DOCTYPE svg PUBLIC "-//W3C//DTD SVG 1.1//EN" "http://www.w3.org/Graphics/SVG/1.1/DTD/svg11.dtd"><svg t="1678090155472" class="icon" viewBox="0 0 1024 1024" version="1.1" xmlns="http://www.w3.org/2000/svg" p-id="19025" xmlns:xlink="http://www.w3.org/1999/xlink" width="200" height="200"><path d="M512 0a512 512 0 1 0 512 512A512 512 0 0 0 512 0z m0 921.6a409.6 409.6 0 1 1 409.6-409.6 409.6 409.6 0 0 1-409.6 409.6z" fill="#7684A0" p-id="19026"></path><path d="M512 223.232A289.28 289.28 0 0 0 223.232 512a25.6 25.6 0 0 0 51.2 0 237.568 237.568 0 1 1 475.648 0 25.6 25.6 0 0 0 51.2 0A289.28 289.28 0 0 0 512 223.232z" fill="#7684A0" p-id="19027"></path><path d="M601.088 481.28L512 576a31.232 31.232 0 0 0-3.072 5.12 98.816 98.816 0 1 0 45.568 44.032l4.608-3.072 91.136-94.72a32.768 32.768 0 1 0-47.616-45.568z m-112.128 211.456a32.768 32.768 0 1 1 0-46.592 32.768 32.768 0 0 1 0 46.592z" fill="#7684A0" p-id="19028"></path></svg>