<?xml version="1.0" standalone="no"?><!DOCTYPE svg PUBLIC "-//W3C//DTD SVG 1.1//EN" "http://www.w3.org/Graphics/SVG/1.1/DTD/svg11.dtd"><svg t="1678090115716" class="icon" viewBox="0 0 1024 1024" version="1.1" xmlns="http://www.w3.org/2000/svg" p-id="18343" xmlns:xlink="http://www.w3.org/1999/xlink" width="200" height="200"><path d="M449.6384 765.44l131.4816-126.8736-20.48-20.48L354.304 784.1792l36.2496 32.1536 156.672 5.2224L403.456 960.1024l21.6064 21.6064 216.2688-177.152-32.1536-36.2496-159.5392-2.8672z m0 0" fill="#2E2E2E" p-id="18344"></path><path d="M501.0432 228.864c-139.1616 0-252.0064 113.3568-252.0064 253.0304 0 67.7888 26.2144 132.096 74.752 180.6336l6.9632 6.9632 50.8928-51.4048-6.9632-6.9632c-33.3824-33.3824-52.1216-79.4624-52.1216-126.3616 0-98.816 79.4624-178.7904 177.7664-178.7904S678.0928 386.048 678.0928 484.7616c0 48.0256-18.7392 92.9792-52.1216 126.3616l-6.9632 6.9632 50.8928 51.4048 6.9632-6.9632c48.5376-48.5376 74.752-112.2304 74.752-180.6336 1.3312-139.0592-111.4112-253.0304-250.5728-253.0304z m0 0" fill="#2E2E2E" p-id="18345"></path><path d="M501.0432 46.4896C260.096 46.4896 64.9216 243.5072 64.9216 484.864c0 114.5856 46.1824 224.4608 129.7408 308.0192l6.9632 6.9632 56.7296-57.2416-6.9632-6.9632c-66.56-67.2768-103.5264-156.672-104.0384-251.392-1.1264-95.3344 34.4064-184.7296 101.6832-252.5184 67.2768-67.7888 156.672-105.7792 252.0064-105.7792 196.4032 0 356.5568 160.768 356.5568 358.2976 0 95.8464-37.9904 187.6992-103.5264 250.7776l-6.9632 6.9632 57.2416 57.2416 6.9632-6.9632c81.92-82.432 126.8736-191.6928 126.8736-308.0192-1.024-240.7424-196.3008-437.76-437.1456-437.76z m0 0" fill="#2E2E2E" p-id="18346"></path><path d="M571.1872 481.9968c0-40.3456-30.3104-70.656-70.144-70.656s-70.144 30.3104-70.144 70.656 30.3104 70.656 70.144 70.656 70.144-30.3104 70.144-70.656z m0 0" fill="#2E2E2E" p-id="18347"></path></svg>