<?xml version="1.0" standalone="no"?><!DOCTYPE svg PUBLIC "-//W3C//DTD SVG 1.1//EN" "http://www.w3.org/Graphics/SVG/1.1/DTD/svg11.dtd"><svg t="1678090040081" class="icon" viewBox="0 0 1024 1024" version="1.1" xmlns="http://www.w3.org/2000/svg" p-id="16495" xmlns:xlink="http://www.w3.org/1999/xlink" width="200" height="200"><path d="M713.194667 659.093333c0.96 1.429333 1.813333 2.944 2.602666 4.48L757.333333 746.666667a73.706667 73.706667 0 0 1-65.92 106.666666H332.586667a73.706667 73.706667 0 0 1-65.92-106.666666l41.536-83.072c0.789333-1.557333 1.642667-3.072 2.602666-4.48A276.245333 276.245333 0 0 0 490.666667 725.333333h42.666666c68.629333 0 131.434667-24.938667 179.861334-66.24zM512 170.666667c141.376 0 256 114.624 256 256s-114.624 256-256 256-256-114.624-256-256S370.624 170.666667 512 170.666667z m0 405.333333a106.666667 106.666667 0 1 0 0.021333-213.333333A106.666667 106.666667 0 0 0 512 576z m2.261333-64a42.666667 42.666667 0 1 1 0-85.333333 42.666667 42.666667 0 0 1 0 85.333333z" fill="#4B4D5C" p-id="16496"></path></svg>