<?xml version="1.0" standalone="no"?><!DOCTYPE svg PUBLIC "-//W3C//DTD SVG 1.1//EN" "http://www.w3.org/Graphics/SVG/1.1/DTD/svg11.dtd"><svg t="1678089648568" class="icon" viewBox="0 0 1024 1024" version="1.1" xmlns="http://www.w3.org/2000/svg" p-id="12325" xmlns:xlink="http://www.w3.org/1999/xlink" width="200" height="200"><path d="M0.19968 0h1023.968712v1023.968712H0.19968z" fill="#FFFFFF" p-id="12326"></path><path d="M235.484935 941.368569l-35.952679 36.009567a98.300996 98.300996 0 0 1-139.202858 0l-13.880465-13.709804a98.869868 98.869868 0 0 1 0-139.54418l35.95268-36.009567A519.49346 519.49346 0 0 1 152.145259 140.226826L491.249565 480.127552l100.235159-100.462708a84.875629 84.875629 0 1 1 51.539759 51.653532L542.732436 531.781084l339.218079 339.900726a516.421554 516.421554 0 0 1-646.46558 69.686759z m721.329071-576.323723A303.891159 303.891159 0 0 0 653.26417 60.869251V0a364.703523 364.703523 0 0 1 364.077764 365.044846z m-121.454067 0a182.323318 182.323318 0 0 0-182.038882-182.550867v-54.725439a237.048757 237.048757 0 0 1 236.764321 237.276306z" fill="#AEC3D3" p-id="12327"></path></svg>